#!OML:ASF E:\Mandelcareful walks\Project 1\Capture day 1\Session 1\Subject1.ASF
:FULLY-SPECIFIED
:DEGREES
2436
root -2.72423 15.9374 -2.27182 -184.746 96.1367 -191.014
lowerback 35.0158 1.22137 0.0658796
upperback 10.528 2.59758 -1.17066
thorax -6.01216 1.74159 -2.2279
lowerneck -28.452 -0.692898 -6.17149
upperneck 20.8507 1.62132 0.199411
head 11.4313 0.25092 1.36233
rclavicle -5.35476e-015 9.28076e-015
rhumerus -19.7743 3.48647 -80.5369
rradius 58.9102
rwrist -22.7319
rhand -12.0444 -28.4316
rfingers 7.12502
rthumb 14.0142 -57.9392
lclavicle -5.35476e-015 9.28076e-015
lhumerus -10.246 -18.2262 78.9633
lradius 59.5677
lwrist 23.4401
lhand -28.5153 -16.872
lfingers 7.12502
lthumb -1.88363 13.0994
rfemur -17.6431 -6.71501 20.8396
rtibia 45.2554
rfoot -26.1698 0.736093
rtoes 6.77046
lfemur -45.3672 12.1561 -18.9749
ltibia 46.5285
lfoot -5.14705 4.2817
ltoes -3.37964
2437
root -2.6394 15.9287 -2.32639 -185.02 96.4866 -191.458
lowerback 34.7356 1.31371 -0.0404478
upperback 10.6242 2.67015 -1.26603
thorax -5.80451 1.77928 -2.2847
lowerneck -28.5929 -0.665413 -6.27417
upperneck 20.8355 1.69085 0.276145
head 11.4462 0.28357 1.42006
rclavicle -1.25731e-014 -1.44119e-014
rhumerus -19.7011 3.71489 -80.7112
rradius 59.4249
rwrist -22.6732
rhand -12.5265 -28.0448
rfingers 7.12502
rthumb 13.5496 -57.5839
lclavicle -1.25731e-014 -1.44119e-014
lhumerus -9.76871 -18.3384 78.7004
lradius 59.8568
lwrist 23.5428
lhand -28.5403 -16.6833
lfingers 7.12502
lthumb -1.90775 13.2879
rfemur -17.4261 -6.43269 20.6618
rtibia 45.099
rfoot -26.445 0.6491
rtoes 6.14077
lfemur -45.3857 12.4915 -19.0938
ltibia 47.0873
lfoot -6.41958 4.03621
ltoes -4.1528
2438
root -2.56212 15.9203 -2.37969 -186.046 96.9362 -192.666
lowerback 34.609 1.44997 -0.0656336
upperback 10.6065 2.8106 -1.38381
thorax -5.76941 1.84433 -2.43954
lowerneck -28.7778 -0.635405 -6.20693
upperneck 21.0042 1.72414 0.273167
head 11.5427 0.298109 1.4167
rclavicle 4.77083e-015 -1.18277e-014
rhumerus -19.701 3.87753 -80.947
rradius 59.7229
rwrist -22.3462
rhand -13.7364 -25.769
rfingers 7.12502
rthumb 12.3832 -55.3822
lclavicle 4.77083e-015 -1.18277e-014
lhumerus -9.43183 -18.5696 78.3941
lradius 60.1538
lwrist 23.7282
lhand -28.5022 -16.6435
lfingers 7.12502
lthumb -1.87094 13.328
rfemur -17.253 -5.98871 20.6477
rtibia 44.9127
rfoot -26.6411 0.3869
rtoes 5.28362
lfemur -45.5218 12.8508 -19.0621
ltibia 47.695
lfoot -7.52971 4.05961
ltoes -3.55464
2439
root -2.48731 15.9112 -2.4301 -187.374 97.2488 -194.119
lowerback 34.5246 1.5378 -0.115993
upperback 10.5612 2.8842 -1.47716
thorax -5.78334 1.87582 -2.53464
lowerneck -28.8278 -0.568216 -6.06554
upperneck 21.1437 1.76366 0.276098
head 11.6042 0.323937 1.40384
rclavicle 2.05742e-014 1.18277e-014
rhumerus -19.6533 4.11743 -81.1979
rradius 59.8358
rwrist -22.153
rhand -12.6226 -27.9255
rfingers 7.12502
rthumb 13.4569 -57.4708
lclavicle 2.05742e-014 1.18277e-014
lhumerus -9.28839 -18.6791 78.1073
lradius 60.4346
lwrist 23.8565
lhand -28.298 -16.6424
lfingers 7.12502
lthumb -1.6737 13.3308
rfemur -16.9919 -5.60683 20.6755
rtibia 44.7216
rfoot -26.8674 0.0124163
rtoes 4.30784
lfemur -45.6728 13.0174 -18.9427
ltibia 48.3635
lfoot -8.57641 4.15863
ltoes -3.10136
2440
root -2.40829 15.9012 -2.47794 -187.362 97.3951 -194.172
lowerback 34.4208 1.61152 -0.345888
upperback 10.5554 2.88946 -1.57165
thorax -5.75513 1.87615 -2.51047
lowerneck -28.7591 -0.491581 -5.99679
upperneck 21.0863 1.80381 0.374839
head 11.5668 0.362737 1.43584
rclavicle 1.45113e-014 0
rhumerus -19.7265 4.32969 -81.3716
rradius 60.3567
rwrist -22.1352
rhand -12.8342 -27.703
rfingers 7.12502
rthumb 13.253 -57.2616
lclavicle 1.45113e-014 0
lhumerus -9.23701 -18.69 77.8869
lradius 60.8056
lwrist 24.0187
lhand -28.1001 -16.8473
lfingers 7.12502
lthumb -1.48263 13.1273
rfemur -16.651 -5.35185 20.4764
rtibia 44.5406
rfoot -27.1118 -0.389581
rtoes 3.31985
lfemur -45.7486 12.9316 -18.9486
ltibia 49.0555
lfoot -9.61906 4.12119
ltoes -4.23772
2441
root -2.32624 15.8889 -2.5253 -187.433 97.4411 -194.331
lowerback 34.2857 1.65258 -0.555206
upperback 10.5676 2.86774 -1.62442
thorax -5.69782 1.86392 -2.44236
lowerneck -28.8222 -0.471741 -6.1185
upperneck 21.1016 1.80975 0.646157
head 11.5779 0.391513 1.5588
rclavicle 1.05356e-014 1.39149e-014
rhumerus -19.8531 4.54702 -81.4283
rradius 60.8867
rwrist -21.9811
rhand -12.8805 -27.2627
rfingers 7.12502
rthumb 13.2084 -56.8242
lclavicle 1.05356e-014 1.39149e-014
lhumerus -9.07146 -18.6842 77.7072
lradius 61.1162
lwrist 24.194
lhand -28.0389 -17.1518
lfingers 7.12502
lthumb -1.42351 12.8232
rfemur -16.3029 -5.13168 20.286
rtibia 44.3443
rfoot -27.3698 -0.761951
rtoes 2.57835
lfemur -45.8442 12.7467 -18.9475
ltibia 49.7001
lfoot -10.7864 3.95825
ltoes -4.88108
2442
root -2.24265 15.8734 -2.57202 -187.947 97.5976 -194.954
lowerback 34.098 1.73833 -0.753946
upperback 10.5736 2.90435 -1.65939
thorax -5.62654 1.87758 -2.37935
lowerneck -28.9904 -0.46812 -6.37327
upperneck 21.2557 1.82044 1.0652
head 11.6577 0.427882 1.76261
rclavicle -1.66979e-014 -5.36719e-015
rhumerus -19.959 4.85283 -81.4425
rradius 61.2186
rwrist -21.9017
rhand -12.6255 -26.9235
rfingers 7.12502
rthumb 13.4542 -56.469
lclavicle -1.66979e-014 -5.36719e-015
lhumerus -8.74579 -18.6357 77.5377
lradius 61.1809
lwrist 24.2681
lhand -27.9689 -17.2455
lfingers 7.12502
lthumb -1.35592 12.7299
rfemur -15.9431 -4.81272 20.2046
rtibia 44.0807
rfoot -27.6419 -1.13512
rtoes 1.94984
lfemur -45.8926 12.757 -18.8974
ltibia 50.281
lfoot -12.2104 3.6266
ltoes -6.89292
2443
root -2.1574 15.8602 -2.6188 -187.24 97.919 -194.294
lowerback 33.81 1.92915 -1.09403
upperback 10.6483 3.02847 -1.79638
thorax -5.44068 1.9372 -2.3715
lowerneck -28.9996 -0.341327 -6.37417
upperneck 21.2422 1.93241 1.28511
head 11.6449 0.50832 1.86519
rclavicle 4.09496e-014 2.14687e-014
rhumerus -19.9842 5.01457 -81.521
rradius 61.7716
rwrist -22.0513
rhand -12.2562 -27.517
rfingers 7.12502
rthumb 13.8101 -57.0386
lclavicle 4.09496e-014 2.14687e-014
lhumerus -8.31663 -18.586 77.3368
lradius 61.1688
lwrist 24.2728
lhand -28.0081 -17.3025
lfingers 7.12502
lthumb -1.39369 12.6727
rfemur -15.5242 -4.51236 19.9453
rtibia 43.7302
rfoot -27.9733 -1.36868
rtoes 1.34557
lfemur -45.7735 13.084 -19.0749
ltibia 50.8395
lfoot -13.9856 3.25615
ltoes -9.43376
2444
root -2.06945 15.8534 -2.66506 -186.946 98.184 -194.006
lowerback 33.743 2.0912 -1.36447
upperback 10.589 3.12241 -1.96723
thorax -5.47782 1.97881 -2.43865
lowerneck -28.9272 -0.118348 -6.06988
upperneck 21.2907 2.11858 1.23961
head 11.6451 0.609825 1.83197
rclavicle 4.9895e-014 -3.53837e-014
rhumerus -20.1271 5.06139 -81.7019
rradius 62.1754
rwrist -21.9724
rhand -11.8607 -28.1391
rfingers 7.12502
rthumb 14.1912 -57.6344
lclavicle 4.9895e-014 -3.53837e-014
lhumerus -8.22214 -18.6109 77.147
lradius 61.2863
lwrist 24.322
lhand -28.1219 -17.581
lfingers 7.12502
lthumb -1.50366 12.3934
rfemur -14.9814 -4.34723 19.7016
rtibia 43.3035
rfoot -28.4225 -1.40689
rtoes 0.636373
lfemur -45.6079 13.4946 -19.2754
ltibia 51.4224
lfoot -15.6061 2.92688
ltoes -10.8846
2445
root -1.98241 15.843 -2.70757 -188.397 98.4217 -195.518
lowerback 33.4677 2.19655 -1.48388
upperback 10.6403 3.21524 -2.05804
thorax -5.31776 2.02381 -2.4884
lowerneck -29.0192 0.0696963 -5.75306
upperneck 21.3349 2.26289 1.19159
head 11.6757 0.692628 1.78974
rclavicle -5.96354e-015 -2.42517e-014
rhumerus -20.0421 5.12862 -81.8581
rradius 62.12
rwrist -21.7366
rhand -12.301 -27.1615
rfingers 7.12502
rthumb 13.767 -56.686
lclavicle -5.96354e-015 -2.42517e-014
lhumerus -8.13737 -18.5448 76.8951
lradius 61.5202
lwrist 24.3652
lhand -28.1569 -17.7279
lfingers 7.12502
lthumb -1.53749 12.2463
rfemur -14.4289 -4.10343 19.7678
rtibia 42.8344
rfoot -28.7488 -1.53114
rtoes -0.344811
lfemur -45.5845 13.8923 -19.1763
ltibia 52.0489
lfoot -16.7825 2.5767
ltoes -11.6662
2446
root -1.89664 15.8288 -2.74606 -190.262 98.5888 -197.535
lowerback 32.79 2.26136 -1.53697
upperback 11.0427 3.28669 -2.03143
thorax -5.1928 2.0436 -2.6029
lowerneck -29.1618 0.189403 -5.63414
upperneck 21.3773 2.31856 1.42859
head 11.7111 0.75862 1.87178
rclavicle -3.97569e-014 2.66371e-014
rhumerus -20.0373 5.19425 -81.9626
rradius 62.1116
rwrist -21.6998
rhand -12.9338 -26.4316
rfingers 7.12502
rthumb 13.157 -55.9965
lclavicle -3.97569e-014 2.66371e-014
lhumerus -8.15841 -18.4033 76.7023
lradius 61.8616
lwrist 24.2418
lhand -28.4568 -17.3227
lfingers 7.12502
lthumb -1.82711 12.6492
rfemur -13.9711 -3.87724 19.9188
rtibia 42.3624
rfoot -28.8576 -1.63907
rtoes -0.647267
lfemur -45.7348 14.2347 -19.0094
ltibia 52.6726
lfoot -17.7845 2.07545
ltoes -11.4222
2447
root -1.80575 15.8241 -2.78372 -191.952 98.5258 -199.381
lowerback 32.5642 2.25794 -1.65631
upperback 11.0374 3.24513 -2.09481
thorax -5.10173 2.0222 -2.57803
lowerneck -29.3921 0.279627 -5.59124
upperneck 21.3969 2.32978 1.80827
head 11.7517 0.818762 2.01299
rclavicle -2.66371e-014 -1.43125e-014
rhumerus -20.0617 5.28793 -82.0479
rradius 62.207
rwrist -21.7766
rhand -13.202 -26.5611
rfingers 7.12502
rthumb 12.8985 -56.1425
lclavicle -2.66371e-014 -1.43125e-014
lhumerus -8.14059 -18.1551 76.5622
lradius 62.1419
lwrist 24.176
lhand -28.8939 -16.967
lfingers 7.12502
lthumb -2.24921 13.0009
rfemur -13.4958 -3.90767 19.9551
rtibia 41.9191
rfoot -28.9536 -1.54942
rtoes -0.410768
lfemur -45.8687 14.3417 -18.9394
ltibia 53.237
lfoot -18.5782 1.49924
ltoes -11.1995
2448
root -1.7086 15.8247 -2.82309 -193.368 98.4 -200.919
lowerback 32.2922 2.27018 -1.87602
upperback 11.058 3.20088 -2.13924
thorax -4.96586 1.99891 -2.46972
lowerneck -29.6217 0.382071 -5.51197
upperneck 21.4916 2.35352 2.15315
head 11.822 0.881765 2.13964
rclavicle -1.86858e-014 -1.51076e-014
rhumerus -20.1366 5.41446 -82.034
rradius 62.2357
rwrist -21.9372
rhand -13.1902 -26.5829
rfingers 7.12502
rthumb 12.9099 -56.1635
lclavicle -1.86858e-014 -1.51076e-014
lhumerus -8.10405 -17.9412 76.5305
lradius 62.3611
lwrist 24.3301
lhand -29.0223 -17.0086
lfingers 7.12502
lthumb -2.37325 12.958
rfemur -12.9938 -4.07659 19.8845
rtibia 41.5302
rfoot -28.9917 -1.38536
rtoes -0.826752
lfemur -45.8769 14.309 -18.9183
ltibia 53.7115
lfoot -19.1853 0.961518
ltoes -11.0072
